<?xml version="1.0" standalone="no"?><!DOCTYPE svg PUBLIC "-//W3C//DTD SVG 1.1//EN" "http://www.w3.org/Graphics/SVG/1.1/DTD/svg11.dtd"><svg t="1737565060396" class="icon" viewBox="0 0 1024 1024" version="1.1" xmlns="http://www.w3.org/2000/svg" p-id="2670" xmlns:xlink="http://www.w3.org/1999/xlink" width="200" height="200"><path d="M697.394 314.246H326.606c-12.36 0-22.248 9.888-22.248 22.247s9.888 22.248 22.248 22.248h370.788c12.36 0 22.248-9.888 22.248-22.248s-9.888-22.247-22.248-22.247z m0 153.26H326.606c-12.36 0-22.248 9.887-22.248 22.247S314.246 512 326.606 512h370.788c12.36 0 22.248-9.888 22.248-22.247s-9.888-22.248-22.248-22.248z" fill="#333333" p-id="2671"></path><path d="M791.327 141.211H232.673c-27.192 0-46.967 22.248-46.967 51.91v637.757c0 29.663 19.775 51.91 46.967 51.91h323.822c17.303 0 32.135-9.887 39.55-22.247 0 0 2.472 0 2.472-2.472L820.99 633.124c9.888-7.416 14.832-19.775 14.832-34.607V193.122c2.472-29.663-19.775-51.91-44.495-51.91z m-187.866 655.06v-103.82c0-24.72 19.776-44.495 46.967-44.495h101.349L603.46 796.27z m192.81-197.754c0 2.472-2.472 4.944-4.944 4.944H652.9c-49.439 0-88.99 39.551-88.99 86.518v145.843c0 2.472-2.472 4.944-4.943 4.944H232.673s-4.944-4.944-4.944-9.888V193.122c0-7.416 4.944-9.888 4.944-9.888h558.654s4.944 4.944 4.944 9.888v405.395z" fill="#333333" p-id="2672"></path></svg>